<svg width="88" height="157" viewBox="0 0 88 157" fill="none" xmlns="http://www.w3.org/2000/svg">
<path d="M84.1662 74.4651C86.5356 78.5037 86.55 83.5045 84.2039 87.5568L55.2505 137.567C50.2434 146.216 37.7566 146.216 32.7495 137.567L3.79605 87.5567C1.45002 83.5045 1.46443 78.5037 3.83378 74.4651L32.7872 25.1128C37.8104 16.5504 50.1895 16.5503 55.2128 25.1127L84.1662 74.4651Z" fill="#6B6B6B"/>
<path d="M84.1662 68.4651C86.5356 72.5037 86.55 77.5045 84.2039 81.5568L55.2505 131.567C50.2434 140.216 37.7566 140.216 32.7495 131.567L3.79605 81.5567C1.45002 77.5045 1.46443 72.5037 3.83378 68.4651L32.7872 19.1128C37.8104 10.5504 50.1895 10.5503 55.2128 19.1127L84.1662 68.4651Z" fill="#D9D9D9" stroke="url(#paint0_linear_1148_587)"/>
<path d="M32.5625 95.4453C30.6875 95.4453 29.2656 94.9453 28.2969 93.9453C27.3438 92.9609 26.8672 91.4453 26.8672 89.3984V71.9844C26.8672 69.9688 27.3438 68.4688 28.2969 67.4844C29.2656 66.4844 30.6875 65.9844 32.5625 65.9844H55.4141C57.2891 65.9844 58.7031 66.4844 59.6562 67.4844C60.625 68.4688 61.1094 69.9688 61.1094 71.9844V89.3984C61.1094 91.4453 60.625 92.9609 59.6562 93.9453C58.7031 94.9453 57.2891 95.4453 55.4141 95.4453H32.5625ZM34.2031 90.0781H53.7734C54.2422 90.0781 54.5938 89.9453 54.8281 89.6797C55.0625 89.4141 55.1797 89.0234 55.1797 88.5078V72.8984C55.1797 72.3672 55.0625 71.9766 54.8281 71.7266C54.5938 71.4766 54.2422 71.3516 53.7734 71.3516H34.2031C33.75 71.3516 33.3984 71.4766 33.1484 71.7266C32.9141 71.9766 32.7969 72.3672 32.7969 72.8984V88.5078C32.7969 89.0234 32.9141 89.4141 33.1484 89.6797C33.3984 89.9453 33.75 90.0781 34.2031 90.0781ZM31.4844 68.2344V60.6641C31.4844 57.8672 32.0469 55.4922 33.1719 53.5391C34.3125 51.5703 35.8281 50.0703 37.7188 49.0391C39.6094 48.0078 41.6953 47.4922 43.9766 47.4922C46.2734 47.4922 48.3672 48.0078 50.2578 49.0391C52.1484 50.0703 53.6562 51.5703 54.7812 53.5391C55.9219 55.4922 56.4922 57.8672 56.4922 60.6641V68.2344H50.9375V60.3828C50.9375 58.8047 50.625 57.4531 50 56.3281C49.375 55.2031 48.5312 54.3438 47.4688 53.75C46.4219 53.1562 45.2578 52.8594 43.9766 52.8594C42.6953 52.8594 41.5312 53.1562 40.4844 53.75C39.4375 54.3438 38.6016 55.2031 37.9766 56.3281C37.3672 57.4531 37.0625 58.8047 37.0625 60.3828V68.2344H31.4844Z" fill="#4B4B4B"/>
<defs>
<linearGradient id="paint0_linear_1148_587" x1="44" y1="0" x2="44" y2="151" gradientUnits="userSpaceOnUse">
<stop stop-color="#E1E1E1"/>
<stop offset="1" stop-color="#FDFDFD"/>
</linearGradient>
</defs>
</svg>
