<svg width="88" height="157" viewBox="0 0 88 157" fill="none" xmlns="http://www.w3.org/2000/svg">
<path d="M84.1662 68.4651C86.5356 72.5037 86.55 77.5045 84.2039 81.5568L55.2505 131.567C50.2434 140.216 37.7566 140.216 32.7495 131.567L3.79605 81.5567C1.45002 77.5045 1.46443 72.5037 3.83378 68.4651L32.7872 19.1128C37.8104 10.5504 50.1895 10.5503 55.2128 19.1127L84.1662 68.4651Z" fill="url(#paint0_linear_1148_630)" stroke="url(#paint1_linear_1148_630)"/>
<path fill-rule="evenodd" clip-rule="evenodd" d="M31.6141 58C29.1723 58 26.9401 59.366 25.8481 61.5284L20.6806 71.7613C19.606 73.8893 19.8159 76.4325 21.2253 78.3596L38.7786 102.361C41.3524 105.88 46.6476 105.88 49.2213 102.361L66.7748 78.3596C68.184 76.4325 68.394 73.8894 67.3195 71.7613L62.1519 61.5284C61.0599 59.366 58.8279 58 56.3859 58H31.6141ZM29.6921 63.4315C30.0561 62.7106 30.8002 62.2553 31.6141 62.2553H36.8535L33.7837 72.8936H24.9138L29.6921 63.4315ZM38.2534 72.8936L41.3232 62.2553H46.6769L49.7467 72.8936H38.2534ZM49.6859 77.1489H38.314L44 95.446L49.6859 77.1489ZM48.1452 96.577L54.1826 77.1489H62.3539L48.1452 96.577ZM54.2164 72.8936L51.1465 62.2553H56.3859C57.1999 62.2553 57.944 62.7106 58.308 63.4315L63.0863 72.8936H54.2164ZM25.6461 77.1489H33.8174L39.8548 96.577L25.6461 77.1489Z" fill="white"/>
<defs>
<linearGradient id="paint0_linear_1148_630" x1="88" y1="75.5" x2="0" y2="75.5" gradientUnits="userSpaceOnUse">
<stop stop-color="#FCC279"/>
<stop offset="1" stop-color="#FB4B22"/>
</linearGradient>
<linearGradient id="paint1_linear_1148_630" x1="44" y1="0" x2="44" y2="151" gradientUnits="userSpaceOnUse">
<stop stop-color="#FFBD7D"/>
<stop offset="1" stop-color="#FF7B00"/>
</linearGradient>
</defs>
</svg>
