<svg width="277" height="277" viewBox="0 0 277 277" fill="none" xmlns="http://www.w3.org/2000/svg">
<path d="M132.689 8.65404C135.462 4.52389 141.538 4.52388 144.311 8.65403L161.62 34.4295C163.571 37.3356 167.37 38.3534 170.513 36.8123L198.39 23.1444C202.857 20.9544 208.119 23.9922 208.456 28.9558L210.558 59.9323C210.795 63.4248 213.575 66.2053 217.068 66.4423L248.044 68.5443C253.008 68.8811 256.046 74.1428 253.856 78.6098L240.188 106.487C238.647 109.63 239.664 113.429 242.57 115.38L268.346 132.689C272.476 135.462 272.476 141.538 268.346 144.311L242.57 161.62C239.664 163.571 238.647 167.37 240.188 170.513L253.856 198.39C256.046 202.857 253.008 208.119 248.044 208.456L217.068 210.558C213.575 210.795 210.795 213.575 210.558 217.068L208.456 248.044C208.119 253.008 202.857 256.046 198.39 253.856L170.513 240.188C167.37 238.647 163.571 239.664 161.62 242.57L144.311 268.346C141.538 272.476 135.462 272.476 132.689 268.346L115.38 242.57C113.429 239.664 109.63 238.647 106.487 240.188L78.6098 253.856C74.1428 256.046 68.8811 253.008 68.5443 248.044L66.4423 217.068C66.2053 213.575 63.4248 210.795 59.9323 210.558L28.9558 208.456C23.9922 208.119 20.9544 202.857 23.1444 198.39L36.8123 170.513C38.3534 167.37 37.3356 163.571 34.4295 161.62L8.65404 144.311C4.52389 141.538 4.52388 135.462 8.65403 132.689L34.4295 115.38C37.3356 113.429 38.3534 109.63 36.8123 106.487L23.1444 78.6098C20.9544 74.1428 23.9922 68.8811 28.9558 68.5443L59.9323 66.4423C63.4248 66.2053 66.2053 63.4248 66.4423 59.9323L68.5443 28.9558C68.8811 23.9922 74.1428 20.9544 78.6098 23.1444L106.487 36.8123C109.63 38.3534 113.429 37.3356 115.38 34.4295L132.689 8.65404Z" fill="#367F9C"/>
<path d="M134.434 24.4902C136.613 21.2451 141.387 21.2451 143.566 24.4902L157.906 45.8447C160.276 49.3735 164.888 50.6093 168.704 48.7383L191.801 37.415C195.31 35.6943 199.444 38.0807 199.709 41.9805L201.45 67.6445C201.738 71.8853 205.115 75.262 209.355 75.5498L235.02 77.291C238.919 77.5558 241.306 81.6895 239.585 85.1992L228.262 108.296C226.391 112.112 227.627 116.724 231.155 119.094L252.51 133.434C255.755 135.613 255.755 140.387 252.51 142.566L231.155 156.906C227.627 159.276 226.391 163.888 228.262 167.704L239.585 190.801C241.306 194.31 238.919 198.444 235.02 198.709L209.355 200.45C205.115 200.738 201.738 204.115 201.45 208.355L199.709 234.02C199.444 237.919 195.31 240.306 191.801 238.585L168.704 227.262C164.888 225.391 160.276 226.627 157.906 230.155L143.566 251.51C141.387 254.755 136.613 254.755 134.434 251.51L120.094 230.155C117.724 226.627 113.112 225.391 109.296 227.262L86.1992 238.585C82.6895 240.306 78.5558 237.919 78.291 234.02L76.5498 208.355C76.262 204.115 72.8853 200.738 68.6445 200.45L42.9805 198.709C39.0807 198.444 36.6943 194.31 38.415 190.801L49.7383 167.704C51.6093 163.888 50.3735 159.276 46.8447 156.906L25.4902 142.566C22.2451 140.387 22.2451 135.613 25.4902 133.434L46.8447 119.094C50.3735 116.724 51.6093 112.112 49.7383 108.296L38.415 85.1992C36.6943 81.6895 39.0807 77.5558 42.9805 77.291L68.6445 75.5498C72.8853 75.262 76.262 71.8853 76.5498 67.6445L78.291 41.9805C78.5558 38.0807 82.6895 35.6943 86.1992 37.415L109.296 48.7383C113.112 50.6093 117.724 49.3735 120.094 45.8447L134.434 24.4902Z" fill="#5AC8F5" stroke="url(#paint0_linear_112_1033)" stroke-width="3"/>
<path d="M129.656 179.547C127.812 179.547 126.188 178.641 124.781 176.828L100.453 145.844C99.9844 145.281 99.6406 144.719 99.4219 144.156C99.2031 143.562 99.0938 142.984 99.0938 142.422C99.0938 141.141 99.5156 140.094 100.359 139.281C101.203 138.438 102.281 138.016 103.594 138.016C105.156 138.016 106.5 138.781 107.625 140.312L129.469 168.906L171.562 101.828C172.125 100.953 172.703 100.344 173.297 100C173.891 99.625 174.656 99.4375 175.594 99.4375C176.875 99.4375 177.906 99.8281 178.688 100.609C179.469 101.391 179.859 102.422 179.859 103.703C179.859 104.266 179.766 104.828 179.578 105.391C179.391 105.922 179.094 106.516 178.688 107.172L134.391 176.922C133.234 178.672 131.656 179.547 129.656 179.547Z" fill="white"/>
<defs>
<linearGradient id="paint0_linear_112_1033" x1="139" y1="15" x2="139" y2="261" gradientUnits="userSpaceOnUse">
<stop stop-color="#61CFFC"/>
<stop offset="1" stop-color="white"/>
</linearGradient>
</defs>
</svg>
