<svg width="88" height="160" viewBox="0 0 88 160" fill="none" xmlns="http://www.w3.org/2000/svg">
<path d="M84.1662 68.4651C86.5356 72.5037 86.55 77.5045 84.2039 81.5568L55.2505 131.567C50.2434 140.216 37.7566 140.216 32.7495 131.567L3.79605 81.5567C1.45002 77.5045 1.46443 72.5037 3.83378 68.4651L32.7872 19.1128C37.8104 10.5504 50.1895 10.5503 55.2128 19.1127L84.1662 68.4651Z" fill="#5AC8F5" stroke="url(#paint0_linear_1148_622)"/>
<path d="M40.4316 91.252C39.3418 91.252 38.4336 90.8184 37.707 89.9512L28.6367 78.9648C28.3203 78.6016 28.0977 78.25 27.9688 77.9102C27.8398 77.5703 27.7754 77.2188 27.7754 76.8555C27.7754 76.0234 28.0508 75.3379 28.6016 74.7988C29.1641 74.248 29.8672 73.9727 30.7109 73.9727C31.6484 73.9727 32.4277 74.3535 33.0488 75.1152L40.3613 84.168L54.7227 61.4746C55.0859 60.9238 55.4609 60.5371 55.8477 60.3145C56.2461 60.0801 56.7324 59.9629 57.3066 59.9629C58.1504 59.9629 58.8477 60.2324 59.3984 60.7715C59.9492 61.3105 60.2246 61.9902 60.2246 62.8105C60.2246 63.1152 60.1719 63.4316 60.0664 63.7598C59.9609 64.0879 59.7969 64.4277 59.5742 64.7793L43.209 89.8281C42.5645 90.7773 41.6387 91.252 40.4316 91.252Z" fill="white"/>
<defs>
<linearGradient id="paint0_linear_1148_622" x1="44" y1="0" x2="44" y2="151" gradientUnits="userSpaceOnUse">
<stop stop-color="#67D2FC"/>
<stop offset="1" stop-color="#B2FCFF"/>
</linearGradient>
</defs>
</svg>
