<svg width="277" height="277" viewBox="0 0 277 277" fill="none" xmlns="http://www.w3.org/2000/svg">
<path d="M132.689 8.65404C135.462 4.52389 141.538 4.52388 144.311 8.65403L161.62 34.4295C163.571 37.3356 167.37 38.3534 170.513 36.8123L198.39 23.1444C202.857 20.9544 208.119 23.9922 208.456 28.9558L210.558 59.9323C210.795 63.4248 213.575 66.2053 217.068 66.4423L248.044 68.5443C253.008 68.8811 256.046 74.1428 253.856 78.6098L240.188 106.487C238.647 109.63 239.664 113.429 242.57 115.38L268.346 132.689C272.476 135.462 272.476 141.538 268.346 144.311L242.57 161.62C239.664 163.571 238.647 167.37 240.188 170.513L253.856 198.39C256.046 202.857 253.008 208.119 248.044 208.456L217.068 210.558C213.575 210.795 210.795 213.575 210.558 217.068L208.456 248.044C208.119 253.008 202.857 256.046 198.39 253.856L170.513 240.188C167.37 238.647 163.571 239.664 161.62 242.57L144.311 268.346C141.538 272.476 135.462 272.476 132.689 268.346L115.38 242.57C113.429 239.664 109.63 238.647 106.487 240.188L78.6098 253.856C74.1428 256.046 68.8811 253.008 68.5443 248.044L66.4423 217.068C66.2053 213.575 63.4248 210.795 59.9323 210.558L28.9558 208.456C23.9922 208.119 20.9544 202.857 23.1444 198.39L36.8123 170.513C38.3534 167.37 37.3356 163.571 34.4295 161.62L8.65404 144.311C4.52389 141.538 4.52388 135.462 8.65403 132.689L34.4295 115.38C37.3356 113.429 38.3534 109.63 36.8123 106.487L23.1444 78.6098C20.9544 74.1428 23.9922 68.8811 28.9558 68.5443L59.9323 66.4423C63.4248 66.2053 66.2053 63.4248 66.4423 59.9323L68.5443 28.9558C68.8811 23.9922 74.1428 20.9544 78.6098 23.1444L106.487 36.8123C109.63 38.3534 113.429 37.3356 115.38 34.4295L132.689 8.65404Z" fill="#6B6B6B"/>
<path d="M134.434 24.4902C136.613 21.2451 141.387 21.2451 143.566 24.4902L157.906 45.8447C160.276 49.3735 164.888 50.6093 168.704 48.7383L191.801 37.415C195.31 35.6943 199.444 38.0807 199.709 41.9805L201.45 67.6445C201.738 71.8853 205.115 75.262 209.355 75.5498L235.02 77.291C238.919 77.5558 241.306 81.6895 239.585 85.1992L228.262 108.296C226.391 112.112 227.627 116.724 231.155 119.094L252.51 133.434C255.755 135.613 255.755 140.387 252.51 142.566L231.155 156.906C227.627 159.276 226.391 163.888 228.262 167.704L239.585 190.801C241.306 194.31 238.919 198.444 235.02 198.709L209.355 200.45C205.115 200.738 201.738 204.115 201.45 208.355L199.709 234.02C199.444 237.919 195.31 240.306 191.801 238.585L168.704 227.262C164.888 225.391 160.276 226.627 157.906 230.155L143.566 251.51C141.387 254.755 136.613 254.755 134.434 251.51L120.094 230.155C117.724 226.627 113.112 225.391 109.296 227.262L86.1992 238.585C82.6895 240.306 78.5558 237.919 78.291 234.02L76.5498 208.355C76.262 204.115 72.8853 200.738 68.6445 200.45L42.9805 198.709C39.0807 198.444 36.6943 194.31 38.415 190.801L49.7383 167.704C51.6093 163.888 50.3735 159.276 46.8447 156.906L25.4902 142.566C22.2451 140.387 22.2451 135.613 25.4902 133.434L46.8447 119.094C50.3735 116.724 51.6093 112.112 49.7383 108.296L38.415 85.1992C36.6943 81.6895 39.0807 77.5558 42.9805 77.291L68.6445 75.5498C72.8853 75.262 76.262 71.8853 76.5498 67.6445L78.291 41.9805C78.5558 38.0807 82.6895 35.6943 86.1992 37.415L109.296 48.7383C113.112 50.6093 117.724 49.3735 120.094 45.8447L134.434 24.4902Z" fill="#D9D9D9"/>
<path d="M134.434 24.4902C136.613 21.2451 141.387 21.2451 143.566 24.4902L157.906 45.8447C160.276 49.3735 164.888 50.6093 168.704 48.7383L191.801 37.415C195.31 35.6943 199.444 38.0807 199.709 41.9805L201.45 67.6445C201.738 71.8853 205.115 75.262 209.355 75.5498L235.02 77.291C238.919 77.5558 241.306 81.6895 239.585 85.1992L228.262 108.296C226.391 112.112 227.627 116.724 231.155 119.094L252.51 133.434C255.755 135.613 255.755 140.387 252.51 142.566L231.155 156.906C227.627 159.276 226.391 163.888 228.262 167.704L239.585 190.801C241.306 194.31 238.919 198.444 235.02 198.709L209.355 200.45C205.115 200.738 201.738 204.115 201.45 208.355L199.709 234.02C199.444 237.919 195.31 240.306 191.801 238.585L168.704 227.262C164.888 225.391 160.276 226.627 157.906 230.155L143.566 251.51C141.387 254.755 136.613 254.755 134.434 251.51L120.094 230.155C117.724 226.627 113.112 225.391 109.296 227.262L86.1992 238.585C82.6895 240.306 78.5558 237.919 78.291 234.02L76.5498 208.355C76.262 204.115 72.8853 200.738 68.6445 200.45L42.9805 198.709C39.0807 198.444 36.6943 194.31 38.415 190.801L49.7383 167.704C51.6093 163.888 50.3735 159.276 46.8447 156.906L25.4902 142.566C22.2451 140.387 22.2451 135.613 25.4902 133.434L46.8447 119.094C50.3735 116.724 51.6093 112.112 49.7383 108.296L38.415 85.1992C36.6943 81.6895 39.0807 77.5558 42.9805 77.291L68.6445 75.5498C72.8853 75.262 76.262 71.8853 76.5498 67.6445L78.291 41.9805C78.5558 38.0807 82.6895 35.6943 86.1992 37.415L109.296 48.7383C113.112 50.6093 117.724 49.3735 120.094 45.8447L134.434 24.4902Z" stroke="white" stroke-width="3" style="mix-blend-mode:plus-lighter"/>
<path d="M139 178.375C132.75 178.375 126.828 177.609 121.234 176.078C115.672 174.578 110.5 172.594 105.719 170.125C100.969 167.625 96.7031 164.875 92.9219 161.875C89.1406 158.875 85.9062 155.875 83.2188 152.875C80.5312 149.844 78.4688 147.047 77.0312 144.484C75.625 141.891 74.9219 139.797 74.9219 138.203C74.9219 136.609 75.625 134.531 77.0312 131.969C78.4688 129.375 80.5312 126.578 83.2188 123.578C85.9062 120.547 89.1406 117.531 92.9219 114.531C96.7344 111.531 101.016 108.797 105.766 106.328C110.547 103.828 115.719 101.828 121.281 100.328C126.875 98.7969 132.781 98.0312 139 98.0312C145.281 98.0312 151.219 98.7969 156.812 100.328C162.438 101.828 167.625 103.828 172.375 106.328C177.156 108.797 181.422 111.531 185.172 114.531C188.953 117.531 192.172 120.547 194.828 123.578C197.484 126.578 199.516 129.375 200.922 131.969C202.328 134.531 203.031 136.609 203.031 138.203C203.031 139.797 202.328 141.891 200.922 144.484C199.516 147.047 197.484 149.844 194.828 152.875C192.172 155.875 188.953 158.875 185.172 161.875C181.422 164.875 177.172 167.625 172.422 170.125C167.672 172.594 162.484 174.578 156.859 176.078C151.266 177.609 145.312 178.375 139 178.375ZM139 170.969C144.125 170.969 149.047 170.328 153.766 169.047C158.516 167.766 162.969 166.078 167.125 163.984C171.281 161.859 175.047 159.547 178.422 157.047C181.828 154.547 184.75 152.078 187.188 149.641C189.625 147.172 191.5 144.922 192.812 142.891C194.156 140.859 194.828 139.297 194.828 138.203C194.828 137.266 194.156 135.828 192.812 133.891C191.5 131.953 189.625 129.75 187.188 127.281C184.75 124.781 181.828 122.266 178.422 119.734C175.047 117.203 171.281 114.859 167.125 112.703C162.969 110.516 158.516 108.766 153.766 107.453C149.047 106.109 144.125 105.438 139 105.438C133.844 105.438 128.891 106.109 124.141 107.453C119.391 108.766 114.938 110.516 110.781 112.703C106.625 114.859 102.859 117.203 99.4844 119.734C96.1094 122.266 93.1875 124.781 90.7188 127.281C88.2812 129.75 86.4062 131.953 85.0938 133.891C83.7812 135.828 83.125 137.266 83.125 138.203C83.125 139.297 83.7812 140.859 85.0938 142.891C86.4062 144.922 88.2812 147.172 90.7188 149.641C93.1875 152.078 96.1094 154.547 99.4844 157.047C102.859 159.547 106.625 161.859 110.781 163.984C114.938 166.078 119.391 167.766 124.141 169.047C128.891 170.328 133.844 170.969 139 170.969ZM139 164.406C135.375 164.406 131.969 163.734 128.781 162.391C125.594 161.016 122.797 159.125 120.391 156.719C117.984 154.312 116.094 151.516 114.719 148.328C113.344 145.141 112.656 141.734 112.656 138.109C112.656 134.484 113.344 131.078 114.719 127.891C116.094 124.703 117.984 121.906 120.391 119.5C122.797 117.094 125.594 115.219 128.781 113.875C131.969 112.5 135.375 111.812 139 111.812C142.625 111.812 146.016 112.5 149.172 113.875C152.359 115.219 155.156 117.094 157.562 119.5C160 121.906 161.891 124.703 163.234 127.891C164.609 131.078 165.297 134.484 165.297 138.109C165.297 141.734 164.609 145.141 163.234 148.328C161.891 151.516 160 154.312 157.562 156.719C155.156 159.125 152.359 161.016 149.172 162.391C146.016 163.734 142.625 164.406 139 164.406ZM139 146.875C141.406 146.875 143.453 146.031 145.141 144.344C146.859 142.625 147.719 140.562 147.719 138.156C147.719 135.75 146.859 133.703 145.141 132.016C143.453 130.297 141.406 129.438 139 129.438C136.594 129.438 134.531 130.297 132.812 132.016C131.125 133.703 130.281 135.75 130.281 138.156C130.281 140.562 131.125 142.625 132.812 144.344C134.531 146.031 136.594 146.875 139 146.875Z" fill="#4B4B4B"/>
</svg>
