<svg width="253" height="259" viewBox="0 0 253 259" fill="none" xmlns="http://www.w3.org/2000/svg">
<circle cx="126.5" cy="132.5" r="126.5" fill="#A43D1F"/>
<circle cx="126.5" cy="126.5" r="124.5" fill="url(#paint0_linear_1156_3848)" stroke="url(#paint1_linear_1156_3848)" stroke-width="4"/>
<path d="M56.75 144.125C59.5833 146.417 62.9167 148.604 66.75 150.688C70.5833 152.771 74.7083 154.625 79.125 156.25C83.5417 157.875 88.0208 159.167 92.5625 160.125C97.1042 161.042 101.5 161.5 105.75 161.5C110.417 161.5 114.5 161.146 118 160.438C121.542 159.729 124.729 158.792 127.562 157.625C130.438 156.417 133.188 155.083 135.812 153.625C121.938 142.417 109.646 130.917 98.9375 119.125C88.2292 107.333 78.7292 95.3958 70.4375 83.3125C79.1042 91.0625 88.0833 98.4792 97.375 105.562C106.708 112.604 116.375 119.292 126.375 125.625C118.958 117.375 111.917 109.229 105.25 101.188C98.5833 93.1042 92.4375 84.7083 86.8125 76C89.6458 79 93.1875 82.4792 97.4375 86.4375C101.688 90.3958 106.333 94.5208 111.375 98.8125C116.458 103.104 121.604 107.312 126.812 111.438C132.062 115.562 137.062 119.333 141.812 122.75C146.604 126.167 150.854 128.938 154.562 131.062C155.396 128.979 156.229 126.042 157.062 122.25C157.896 118.458 158.312 114.667 158.312 110.875C158.312 103.875 157.417 97.5208 155.625 91.8125C153.875 86.0625 151.729 80.9375 149.188 76.4375C146.646 71.9375 144.188 68.0417 141.812 64.75C150.271 69.8333 157.333 75.4792 163 81.6875C168.708 87.8958 173.229 94.2292 176.562 100.688C179.938 107.104 182.333 113.292 183.75 119.25C185.208 125.167 185.938 130.396 185.938 134.938C185.938 136.938 185.812 139.5 185.562 142.625C185.312 145.708 184.625 148.792 183.5 151.875C186.833 156.042 189.354 160.042 191.062 163.875C192.771 167.708 193.917 171.167 194.5 174.25C195.083 177.333 195.375 179.875 195.375 181.875C195.375 182.958 195.292 183.917 195.125 184.75C195 185.625 194.854 186.396 194.688 187.062C194.438 187.979 194.125 188.375 193.75 188.25C193.375 188.125 193.062 187.812 192.812 187.312C192.229 186.312 191.292 184.958 190 183.25C188.708 181.583 186.854 180.062 184.438 178.688C182.062 177.354 178.979 176.688 175.188 176.688C172.479 176.688 169.958 177.042 167.625 177.75C165.333 178.5 163.021 179.417 160.688 180.5C158.396 181.583 155.896 182.667 153.188 183.75C150.479 184.875 147.375 185.792 143.875 186.5C140.375 187.25 136.271 187.625 131.562 187.625C124.188 187.625 117.208 186.688 110.625 184.812C104.042 182.938 97.9375 180.417 92.3125 177.25C86.6875 174.125 81.5833 170.667 77 166.875C72.4167 163.042 68.4167 159.167 65 155.25C61.5833 151.292 58.8333 147.583 56.75 144.125Z" fill="white"/>
<defs>
<linearGradient id="paint0_linear_1156_3848" x1="253" y1="126.5" x2="0" y2="126.5" gradientUnits="userSpaceOnUse">
<stop stop-color="#FCC279"/>
<stop offset="1" stop-color="#FB4B22"/>
</linearGradient>
<linearGradient id="paint1_linear_1156_3848" x1="0" y1="127" x2="253" y2="127" gradientUnits="userSpaceOnUse">
<stop stop-color="#FD5F20"/>
<stop offset="1" stop-color="#FFE7B0"/>
</linearGradient>
</defs>
</svg>
