<svg width="175" height="51" viewBox="0 0 175 51" fill="none" xmlns="http://www.w3.org/2000/svg">
<path d="M24.1765 26.3882C23.4151 26.914 22.3902 26.7042 21.8391 25.9592C21.2062 25.1037 21.4433 23.8901 22.3211 23.2913C22.8294 22.9445 23.324 22.59 23.8046 22.2278C24.8071 21.4823 25.7249 20.7368 26.5581 19.9913C27.4043 19.2327 28.1333 18.5199 28.7452 17.8528C29.37 17.1727 29.8517 16.5711 30.1902 16.0479C30.5287 15.5117 30.6979 15.0866 30.6979 14.7727C30.6979 14.5111 30.5808 14.328 30.3464 14.2234C30.1251 14.1056 29.8127 14.0468 29.4091 14.0468C28.8493 14.0468 28.1528 14.1318 27.3196 14.3018C26.4995 14.4719 25.6272 14.6877 24.7029 14.9492C24.3719 15.0395 24.0452 15.1306 23.7228 15.2226C22.8306 15.4772 21.9015 14.9285 21.7098 14.0168C21.5374 13.1962 22.0307 12.3809 22.8395 12.1732C23.945 11.8894 25.0218 11.6376 26.0699 11.4179C27.58 11.0909 29.0446 10.9274 30.4636 10.9274C31.2057 10.9274 31.8696 11.0124 32.4554 11.1824C33.0413 11.3394 33.5034 11.6206 33.8419 12.026C34.1804 12.4315 34.3496 13.0004 34.3496 13.7329C34.3496 14.583 34.0762 15.5247 33.5294 16.558C33.3471 16.911 33.1457 17.2655 32.9254 17.6216C32.1908 18.8087 32.3631 20.3972 33.3879 21.3426C33.64 21.5752 33.8955 21.8179 34.1543 22.0709C34.7028 22.5922 35.2387 23.1325 35.7618 23.6919C36.4118 24.387 36.3021 25.4857 35.5545 26.0734C34.8263 26.646 33.7757 26.5095 33.1731 25.8048C32.7742 25.3384 32.3527 24.872 31.9086 24.4055C31.6396 24.1229 31.3731 23.8487 31.1091 23.5828C30.1809 22.6476 28.6868 22.7 27.7085 23.582C27.1679 24.0694 26.6152 24.5401 26.0503 24.9941C25.3974 25.5116 24.7728 25.9763 24.1765 26.3882Z" fill="white"/>
<path d="M40.5551 21.2972C39.9141 21.9821 38.8317 22.0661 38.1422 21.4305C37.5424 20.8776 37.4452 19.9605 37.9863 19.3496C38.1459 19.1694 38.3168 18.9836 38.499 18.7921C39.098 18.163 39.7816 17.5078 40.5499 16.8263C41.3181 16.1448 42.132 15.4633 42.9914 14.7818C43.8639 14.1004 44.7558 13.4582 45.6673 12.8554C46.5789 12.2394 47.4708 11.6955 48.3433 11.2237C48.8621 10.9354 49.3626 10.6864 49.8446 10.4768C50.4157 10.2285 51.0704 10.4131 51.4768 10.8865C52.1725 11.697 51.8503 12.9636 50.8966 13.4404C50.7164 13.5305 50.5359 13.6238 50.3551 13.7203C50.0044 13.9103 49.656 14.1071 49.3098 14.3107C48.4225 14.8323 48.0123 15.8831 48.1441 16.9075C48.1589 17.0222 48.1732 17.1392 48.187 17.2587C48.2782 18.0451 48.3433 18.8838 48.3823 19.775C48.4214 20.6661 48.4409 21.5638 48.4409 22.4681C48.4409 23.3855 48.4214 24.2767 48.3823 25.1416C48.3713 25.3834 48.3586 25.6183 48.3444 25.8463C48.2883 26.7447 47.5094 27.4049 46.6147 27.3578C45.6508 27.307 44.92 26.459 44.9567 25.4899C44.9593 25.4206 44.9618 25.3504 44.9642 25.2792C45.0032 24.506 45.0228 23.6935 45.0228 22.8416C45.0228 21.9111 44.9967 20.9807 44.9447 20.0502C44.8972 18.9051 43.6042 18.3824 42.7543 19.1468C42.3696 19.4929 41.9994 19.8398 41.6437 20.1878C41.2491 20.5736 40.8862 20.9434 40.5551 21.2972Z" fill="white"/>
<path d="M21.4809 34.3224C21.0658 34.4318 20.6358 34.1673 20.5678 33.7415L20.5467 33.6096C20.483 33.2111 20.718 32.824 21.1083 32.7282C21.1934 32.7074 21.2813 32.6868 21.3721 32.6664C22.0595 32.5119 22.5811 31.9531 22.7157 31.2585C22.739 31.138 22.7628 31.0226 22.7871 30.9123C22.8054 30.8351 22.8229 30.7621 22.8395 30.6932C22.9354 30.296 23.3164 30.0434 23.7204 30.091C24.222 30.15 24.5602 30.6454 24.4525 31.1411C24.3547 31.6414 24.7804 32.0824 25.2846 32.024C25.4158 32.0088 25.547 31.9943 25.6782 31.9803C26.2017 31.9247 26.6058 31.4943 26.6521 30.9675C26.6586 30.8932 26.6656 30.8203 26.673 30.7488C26.6806 30.674 26.6886 30.6019 26.6969 30.5325C26.7433 30.1429 27.0849 29.8719 27.4754 29.8795L27.6682 29.8833C28.0833 29.8915 28.3953 30.2799 28.3493 30.6944C28.3489 30.6981 28.3485 30.7017 28.3481 30.7054C28.2853 31.2737 28.7489 31.7512 29.318 31.7512C29.5285 31.7512 29.7244 31.7548 29.9058 31.7621C30.1838 31.7732 30.3942 32.0085 30.3924 32.288L30.3891 32.8047C30.3867 33.1605 30.0856 33.4401 29.7317 33.429C29.4995 33.4145 29.2563 33.4072 29.0024 33.4072C28.5389 33.4072 28.1645 33.7836 28.1642 34.2492C28.1642 34.2555 28.1642 34.2617 28.1642 34.2679C28.1642 34.5585 28.1679 34.8417 28.1751 35.1177C28.1964 35.5113 27.9047 35.8591 27.5133 35.8859L27.4038 35.8934C26.977 35.9227 26.6043 35.6085 26.5843 35.1791C26.5809 35.1068 26.5779 35.0319 26.575 34.9543C26.5605 34.5548 26.5533 34.1299 26.5533 33.6796C26.5533 33.5914 26.4786 33.5219 26.3911 33.5291C25.953 33.565 25.5187 33.6097 25.0883 33.6632C24.4746 33.7394 23.9981 34.2403 23.9674 34.8608C23.957 35.0704 23.9518 35.265 23.9518 35.4446C23.9518 35.7061 23.9663 35.9566 23.9953 36.1963C24.0316 36.436 24.1042 36.6503 24.213 36.8391C24.3291 37.028 24.5069 37.1842 24.7464 37.3076C24.9931 37.4239 25.3269 37.4892 25.7478 37.5037C26.3936 37.5037 27.0141 37.4239 27.6091 37.264C27.8887 37.1856 28.1754 37.0935 28.4694 36.9877C28.9938 36.7991 29.5771 37.118 29.6639 37.6707C29.7233 38.0487 29.5264 38.4239 29.172 38.5643C28.6584 38.7678 28.1773 38.9118 27.7288 38.9964C27.1193 39.1198 26.4916 39.1816 25.8458 39.1816C25.5337 39.1816 25.2108 39.1598 24.877 39.1162C24.5432 39.0726 24.2239 38.9782 23.9191 38.8329C23.6144 38.6949 23.3422 38.4843 23.1028 38.201C22.8633 37.9177 22.671 37.54 22.5259 37.0679C22.388 36.5886 22.3191 35.993 22.3191 35.2812C22.3191 35.085 22.3227 34.8889 22.3299 34.6928C22.3408 34.4006 22.0742 34.1762 21.7912 34.2449C21.6868 34.2703 21.5834 34.2961 21.4809 34.3224Z" fill="white"/>
<path d="M34.2115 37.8579C34.1125 38.3272 33.6656 38.6404 33.1947 38.5612C32.7001 38.478 32.3742 37.9962 32.4898 37.5059C32.5936 37.0655 32.7039 36.6263 32.8206 36.1884C32.9421 35.728 33.0678 35.276 33.1977 34.8323C33.3003 34.4819 32.9812 34.1515 32.6352 34.2638C32.3249 34.3675 31.99 34.1844 31.912 33.8652L31.7686 33.2777C31.7088 33.0328 31.8351 32.7826 32.0683 32.689C32.2936 32.6015 32.5771 32.5068 32.9187 32.4047C33.6152 32.201 34.2087 31.7149 34.4632 31.0323C34.4899 30.9607 34.5166 30.8896 34.5433 30.819C34.6138 30.6405 34.6831 30.4666 34.7511 30.2972C34.9055 29.9123 35.3233 29.7048 35.7232 29.8084C36.2161 29.9361 36.4917 30.4511 36.3002 30.925C36.0906 31.444 36.4583 32.0279 37.0013 32.1552C37.5892 32.293 38.0855 32.5256 38.4901 32.8531C39.137 33.3707 39.4605 34.1435 39.4605 35.1714C39.4605 35.9296 39.2861 36.6915 38.9372 37.457C38.6837 38.013 38.3306 38.5729 37.8778 39.1366C37.5815 39.5055 37.0412 39.5323 36.683 39.2239C36.2854 38.8817 36.2777 38.2735 36.6113 37.868C36.9259 37.4857 37.1596 37.1117 37.3126 36.7462C37.567 36.1483 37.6942 35.5906 37.6942 35.073C37.6942 34.7595 37.6324 34.508 37.5089 34.3184C37.3926 34.1289 37.2327 33.9867 37.0291 33.892C36.8329 33.7972 36.6112 33.7352 36.3641 33.7061C36.1169 33.6769 35.8625 33.6623 35.6009 33.6623C35.4292 33.6623 35.2828 33.7804 35.2313 33.9449C34.9962 34.695 34.7814 35.4537 34.5869 36.2213C34.4494 36.7777 34.3242 37.3232 34.2115 37.8579ZM41.6075 33.9893C41.1944 34.2761 40.6271 34.1383 40.3613 33.7103C39.9873 33.1083 39.5918 32.5683 39.1747 32.0904C38.8565 31.7259 38.8754 31.1597 39.249 30.8528C39.5673 30.5914 40.0325 30.613 40.313 30.9148C40.4636 31.0768 40.6047 31.2344 40.7362 31.3877C41.0051 31.7012 41.2595 32.0292 41.4994 32.3719C41.6125 32.5287 41.7264 32.6955 41.841 32.8722C42.0823 33.244 41.9709 33.737 41.6075 33.9893Z" fill="white"/>
<path d="M47.2291 38.865C46.7865 38.865 46.3801 38.7452 46.01 38.5054C45.6472 38.2657 45.3207 37.9388 45.0304 37.5247C44.7474 37.1033 44.5007 36.6166 44.2902 36.0645C44.0798 35.5124 43.902 34.924 43.7569 34.2992C43.619 33.6744 43.5101 33.0352 43.4303 32.3813C43.3877 31.9978 43.3552 31.6193 43.3326 31.2458C43.3056 30.7999 43.6311 30.4158 44.0713 30.3524C44.589 30.2779 45.0546 30.6719 45.094 31.1958C45.1343 31.73 45.1929 32.2487 45.2699 32.7518C45.4005 33.5582 45.5674 34.2738 45.7706 34.8985C45.9738 35.5233 46.2023 36.0173 46.4563 36.3805C46.7103 36.7365 46.9752 36.9145 47.2509 36.9145C47.4831 36.9145 47.7262 36.751 47.9802 36.4241C48.3209 35.9883 49.0688 35.9006 49.342 36.3821L49.4634 36.596C49.584 36.8086 49.5936 37.0693 49.4717 37.2812C49.2074 37.7404 48.917 38.1049 48.6006 38.3747C48.2161 38.7016 47.7589 38.865 47.2291 38.865ZM52.6972 33.8603C52.4205 34.1954 51.9152 34.221 51.594 33.9287C51.3618 33.7108 51.0969 33.4783 50.7994 33.2313C50.5091 32.9843 50.2007 32.7482 49.8742 32.523C49.8526 32.5076 49.831 32.4924 49.8093 32.4773C49.3529 32.1587 49.2242 31.5045 49.5878 31.0822C49.8454 30.7828 50.2756 30.6956 50.6087 30.9068C50.7185 30.9764 50.8292 31.0502 50.9409 31.1282C51.2602 31.3461 51.5686 31.5786 51.8661 31.8256C52.1709 32.0653 52.4466 32.2978 52.6934 32.523C52.7037 32.5319 52.7139 32.5407 52.7241 32.5494C53.0739 32.8509 53.0994 33.3733 52.8052 33.7296L52.6972 33.8603Z" fill="white"/>
<path d="M74.3163 33.5269C72.9725 33.5269 71.8007 33.3315 70.8007 32.9409C69.8085 32.5425 69.0272 31.9761 68.4569 31.2417C67.8944 30.4995 67.578 29.6128 67.5077 28.5815L67.496 28.394H70.8475L70.871 28.5229C70.9413 28.9526 71.1327 29.3276 71.4452 29.6479C71.7655 29.9604 72.1757 30.2065 72.6757 30.3862C73.1835 30.5659 73.7577 30.6558 74.3983 30.6558C75.0546 30.6558 75.621 30.5659 76.0975 30.3862C76.5741 30.2065 76.9413 29.9526 77.1991 29.6245C77.4569 29.2964 77.5858 28.9175 77.5858 28.4878V28.4761C77.5858 27.9136 77.3593 27.4683 76.9061 27.1401C76.4608 26.812 75.7147 26.5425 74.6678 26.3315L72.8749 25.9683C71.1952 25.6323 69.9374 25.062 69.1014 24.2573C68.2655 23.4526 67.8475 22.4136 67.8475 21.1401V21.1284C67.8553 20.0972 68.1327 19.1987 68.6796 18.4331C69.2343 17.6597 69.996 17.0581 70.9647 16.6284C71.9413 16.1987 73.0507 15.9839 74.2928 15.9839C75.6053 15.9839 76.7343 16.1909 77.6796 16.605C78.6249 17.0112 79.3632 17.5854 79.8944 18.3276C80.4335 19.0698 80.7303 19.9292 80.785 20.9058L80.7968 21.1167H77.4569L77.4452 20.9761C77.3827 20.5308 77.2147 20.1519 76.9413 19.8394C76.6678 19.5269 76.3046 19.2847 75.8514 19.1128C75.4061 18.9409 74.8866 18.855 74.2928 18.855C73.6991 18.855 73.1835 18.9448 72.746 19.1245C72.3163 19.2964 71.9803 19.5347 71.7382 19.8394C71.5038 20.144 71.3866 20.4995 71.3866 20.9058V20.9175C71.3866 21.4565 71.6132 21.8901 72.0663 22.2183C72.5194 22.5464 73.2343 22.812 74.2108 23.0151L75.9921 23.3784C77.1796 23.6128 78.1522 23.937 78.91 24.3511C79.6678 24.7651 80.2264 25.2886 80.5858 25.9214C80.9452 26.5464 81.1249 27.3003 81.1249 28.1831V28.1948C81.1249 29.2808 80.8514 30.2261 80.3046 31.0308C79.7655 31.8276 78.9882 32.4448 77.9725 32.8823C76.9569 33.312 75.7382 33.5269 74.3163 33.5269ZM85.66 33.2104L82.2968 20.5894H85.7421L87.6522 29.9175H87.746L89.9843 20.5894H93.2538L95.5038 29.9175H95.5975L97.5077 20.5894H100.894L97.5428 33.2104H93.8983L91.6132 24.3042H91.5194L89.2577 33.2104H85.66ZM102.488 33.2104V20.5894H105.91V33.2104H102.488ZM104.199 18.9136C103.683 18.9136 103.246 18.7378 102.887 18.3862C102.535 18.0269 102.359 17.6011 102.359 17.1089C102.359 16.6089 102.535 16.1831 102.887 15.8315C103.246 15.48 103.683 15.3042 104.199 15.3042C104.723 15.3042 105.16 15.48 105.512 15.8315C105.871 16.1831 106.051 16.6089 106.051 17.1089C106.051 17.6011 105.871 18.0269 105.512 18.3862C105.16 18.7378 104.723 18.9136 104.199 18.9136ZM114.863 33.5269C113.519 33.5269 112.348 33.3315 111.348 32.9409C110.355 32.5425 109.574 31.9761 109.004 31.2417C108.441 30.4995 108.125 29.6128 108.055 28.5815L108.043 28.394H111.394L111.418 28.5229C111.488 28.9526 111.68 29.3276 111.992 29.6479C112.312 29.9604 112.723 30.2065 113.223 30.3862C113.73 30.5659 114.305 30.6558 114.945 30.6558C115.601 30.6558 116.168 30.5659 116.644 30.3862C117.121 30.2065 117.488 29.9526 117.746 29.6245C118.004 29.2964 118.133 28.9175 118.133 28.4878V28.4761C118.133 27.9136 117.906 27.4683 117.453 27.1401C117.008 26.812 116.262 26.5425 115.215 26.3315L113.422 25.9683C111.742 25.6323 110.484 25.062 109.648 24.2573C108.812 23.4526 108.394 22.4136 108.394 21.1401V21.1284C108.402 20.0972 108.68 19.1987 109.226 18.4331C109.781 17.6597 110.543 17.0581 111.512 16.6284C112.488 16.1987 113.598 15.9839 114.84 15.9839C116.152 15.9839 117.281 16.1909 118.226 16.605C119.172 17.0112 119.91 17.5854 120.441 18.3276C120.98 19.0698 121.277 19.9292 121.332 20.9058L121.344 21.1167H118.004L117.992 20.9761C117.93 20.5308 117.762 20.1519 117.488 19.8394C117.215 19.5269 116.851 19.2847 116.398 19.1128C115.953 18.9409 115.433 18.855 114.84 18.855C114.246 18.855 113.73 18.9448 113.293 19.1245C112.863 19.2964 112.527 19.5347 112.285 19.8394C112.051 20.144 111.933 20.4995 111.933 20.9058V20.9175C111.933 21.4565 112.16 21.8901 112.613 22.2183C113.066 22.5464 113.781 22.812 114.758 23.0151L116.539 23.3784C117.726 23.6128 118.699 23.937 119.457 24.3511C120.215 24.7651 120.773 25.2886 121.133 25.9214C121.492 26.5464 121.672 27.3003 121.672 28.1831V28.1948C121.672 29.2808 121.398 30.2261 120.851 31.0308C120.312 31.8276 119.535 32.4448 118.519 32.8823C117.504 33.312 116.285 33.5269 114.863 33.5269ZM129.476 33.4683C128.187 33.4683 127.078 33.2065 126.148 32.6831C125.226 32.1519 124.516 31.394 124.016 30.4097C123.516 29.4253 123.266 28.2612 123.266 26.9175V26.9058C123.266 25.5698 123.512 24.4097 124.004 23.4253C124.504 22.4409 125.207 21.6792 126.113 21.1401C127.027 20.5933 128.101 20.3198 129.336 20.3198C130.562 20.3198 131.625 20.5854 132.523 21.1167C133.422 21.6401 134.113 22.3784 134.598 23.3315C135.09 24.2769 135.336 25.3862 135.336 26.6597V27.7144H124.953V25.5581H133.707L132.09 27.5737V26.2495C132.09 25.5073 131.976 24.8862 131.75 24.3862C131.523 23.8862 131.207 23.5112 130.801 23.2612C130.394 23.0112 129.926 22.8862 129.394 22.8862C128.855 22.8862 128.379 23.0151 127.965 23.2729C127.551 23.5308 127.226 23.9136 126.992 24.4214C126.758 24.9214 126.641 25.5308 126.641 26.2495V27.5854C126.641 28.2886 126.758 28.8901 126.992 29.3901C127.226 29.8823 127.558 30.2612 127.988 30.5269C128.426 30.7847 128.945 30.9136 129.547 30.9136C130.016 30.9136 130.422 30.8433 130.766 30.7026C131.117 30.5542 131.398 30.3706 131.609 30.1519C131.828 29.9253 131.976 29.6987 132.055 29.4722L132.078 29.4019H135.23L135.195 29.5308C135.101 29.9839 134.918 30.4409 134.644 30.9019C134.379 31.3628 134.012 31.7886 133.543 32.1792C133.082 32.5698 132.512 32.8823 131.832 33.1167C131.16 33.3511 130.375 33.4683 129.476 33.4683ZM137.398 33.2104V16.1362H140.82V33.2104H137.398ZM145.344 33.2104L141.441 27.6558L143.68 25.1479L149.305 33.2104H145.344ZM140.433 29.4487L140.41 25.6284H140.914L145.168 20.5894H149.047L143.34 27.0581L142.391 27.3042L140.433 29.4487ZM154.039 33.4097C153.203 33.4097 152.469 33.2495 151.836 32.9292C151.203 32.6011 150.707 32.1519 150.348 31.5815C149.996 31.0034 149.82 30.3433 149.82 29.6011V29.5776C149.82 28.812 150.012 28.1597 150.394 27.6206C150.777 27.0737 151.332 26.644 152.058 26.3315C152.793 26.0112 153.683 25.8198 154.73 25.7573L159.605 25.4526V27.5737L155.246 27.855C154.574 27.894 154.062 28.0503 153.711 28.3237C153.367 28.5894 153.195 28.9487 153.195 29.4019V29.4136C153.195 29.8823 153.371 30.2495 153.723 30.5151C154.082 30.7808 154.558 30.9136 155.152 30.9136C155.668 30.9136 156.125 30.812 156.523 30.6089C156.93 30.4058 157.25 30.1323 157.484 29.7886C157.719 29.437 157.836 29.0425 157.836 28.605V24.7378C157.836 24.1831 157.656 23.7456 157.297 23.4253C156.945 23.105 156.43 22.9448 155.75 22.9448C155.117 22.9448 154.609 23.0737 154.226 23.3315C153.851 23.5815 153.617 23.9058 153.523 24.3042L153.5 24.4097H150.359L150.371 24.269C150.441 23.4956 150.703 22.8159 151.156 22.23C151.617 21.6362 152.246 21.1714 153.043 20.8354C153.848 20.4917 154.801 20.3198 155.902 20.3198C156.996 20.3198 157.941 20.4956 158.738 20.8472C159.535 21.1987 160.152 21.6909 160.59 22.3237C161.027 22.9565 161.246 23.7026 161.246 24.562V33.2104H157.836V31.3706H157.742C157.508 31.7925 157.203 32.1558 156.828 32.4604C156.461 32.7651 156.043 32.9995 155.574 33.1636C155.105 33.3276 154.594 33.4097 154.039 33.4097ZM163.707 33.2104V20.5894H167.129V33.2104H163.707ZM165.418 18.9136C164.902 18.9136 164.465 18.7378 164.105 18.3862C163.754 18.0269 163.578 17.6011 163.578 17.1089C163.578 16.6089 163.754 16.1831 164.105 15.8315C164.465 15.48 164.902 15.3042 165.418 15.3042C165.941 15.3042 166.379 15.48 166.73 15.8315C167.09 16.1831 167.269 16.6089 167.269 17.1089C167.269 17.6011 167.09 18.0269 166.73 18.3862C166.379 18.7378 165.941 18.9136 165.418 18.9136Z" fill="white"/>
</svg>
